<svg xmlns="http://www.w3.org/2000/svg" version="1.1" xmlns:xlink="http://www.w3.org/1999/xlink" xmlns:svgjs="http://svgjs.dev/svgjs" width="1000" height="1000" viewBox="0 0 1000 1000"><rect width="1000" height="1000" fill="#000000"></rect><g transform="matrix(0.7,0,0,0.7,149.57575757575756,388.2083055181763)"><svg viewBox="0 0 396 127" data-background-color="#ffffff" preserveAspectRatio="xMidYMid meet" height="320" width="1000" xmlns="http://www.w3.org/2000/svg" xmlns:xlink="http://www.w3.org/1999/xlink"><g id="tight-bounds" transform="matrix(1,0,0,1,0.2400000000000091,-0.11810178932316262)"><svg viewBox="0 0 395.52 127.23620357864631" height="127.23620357864631" width="395.52"><g><svg viewBox="0 0 395.52 127.23620357864631" height="127.23620357864631" width="395.52"><g transform="matrix(1,0,0,1,0,78.63707827493232)"><svg viewBox="0 0 395.52 48.59912530371399" height="48.59912530371399" width="395.52"><g id="textblocktransform"><svg viewBox="0 0 395.52 48.59912530371399" height="48.59912530371399" width="395.52" id="textblock"><g><svg viewBox="0 0 395.52 48.59912530371399" height="48.59912530371399" width="395.52"><g transform="matrix(1,0,0,1,0,0)"><svg width="395.52" viewBox="2.5 -35.2 288.07 35.400000000000006" height="48.59912530371399" data-palette-color="#883d1a"><path d="M5.75-32.25L2.5-32.25 2.5-35 13.25-35Q24.05-35 24.05-26.55L24.05-26.55Q24.05-23 21.35-18.9L21.35-18.9Q26.1-16.95 26.1-10.35L26.1-10.35Q26.1-4.45 23.13-2.23 20.15 0 14 0L14 0 2.5 0 2.5-2.75 5.75-2.75 5.75-32.25ZM15-17.15L15-17.15 9.15-17.15 9.15-2.75 13.75-2.75Q16.05-2.75 17.5-3 18.95-3.25 20.25-4L20.25-4Q22.7-5.35 22.7-10.15L22.7-10.15Q22.7-13.95 20.78-15.55 18.85-17.15 15-17.15ZM9.15-19.9L15.25-19.9Q17.1-19.9 18.45-19.7L18.45-19.7Q20.65-23.15 20.65-26.25L20.65-26.25Q20.65-32.25 13-32.25L13-32.25 9.15-32.25 9.15-19.9ZM28.65-17.4L28.65-17.4Q28.65-25.55 32.87-30.38 37.1-35.2 43.4-35.2L43.4-35.2Q58.15-35.2 58.15-17.4L58.15-17.4Q58.15-9.3 53.95-4.55 49.75 0.2 43.4 0.2L43.4 0.2Q28.65 0.2 28.65-17.4ZM32.05-17.5L32.05-17.5Q32.05-2.8 43.4-2.8L43.4-2.8Q48.3-2.8 51.52-6.7 54.75-10.6 54.75-17.5L54.75-17.5Q54.75-32.2 43.4-32.2L43.4-32.2Q38.5-32.2 35.27-28.28 32.05-24.35 32.05-17.5ZM60.95-17.4L60.95-17.4Q60.95-25.55 65.17-30.38 69.39-35.2 75.69-35.2L75.69-35.2Q90.44-35.2 90.44-17.4L90.44-17.4Q90.44-9.3 86.25-4.55 82.05 0.2 75.69 0.2L75.69 0.2Q60.95 0.2 60.95-17.4ZM64.34-17.5L64.34-17.5Q64.34-2.8 75.69-2.8L75.69-2.8Q80.59-2.8 83.82-6.7 87.05-10.6 87.05-17.5L87.05-17.5Q87.05-32.2 75.69-32.2L75.69-32.2Q70.8-32.2 67.57-28.28 64.34-24.35 64.34-17.5ZM110.64-32.25L107.94-32.25 107.94-35 117.64-35 117.64-32.25 114.44-32.25 104.29-18.55 116.74-2.75 120.54-2.75 120.54 0 118.94 0 115.09 0.05 100.59-18.3 110.64-32.25ZM104.04-32.25L100.59-32.25 100.59-2.75 104.04-2.75 104.04 0 93.94 0 93.94-2.75 97.19-2.75 97.19-32.25 93.94-32.25 93.94-35 104.04-35 104.04-32.25ZM169.08-32.3L169.08-32.3Q163.43-32.3 160.13-28.1 156.83-23.9 156.83-16L156.83-16Q156.83-12.6 157.53-10.05 158.23-7.5 159.26-6.1 160.28-4.7 161.78-3.9L161.78-3.9Q164.18-2.55 167.38-2.55L167.38-2.55Q172.33-2.55 177.28-3.65L177.28-3.65 177.88-1.05Q177.03-0.75 173.36-0.28 169.68 0.2 167.38 0.2 165.08 0.2 163.38-0.13 161.68-0.45 159.78-1.5 157.88-2.55 156.56-4.28 155.23-6 154.33-9 153.43-12 153.43-16L153.43-16Q153.43-24.85 157.48-29.8L157.48-29.8Q161.73-35 169.08-35L169.08-35Q171.33-35 173.96-34.58 176.58-34.15 177.68-33.75L177.68-33.75 178.28-26.55 175.83-26.2 175.13-31.6Q171.93-32.3 169.08-32.3ZM183.53-32.25L180.13-32.25 180.13-35 190.23-35 190.23-32.25 187.08-32.25 196.48-14.6 205.43-32.25 202.38-32.25 202.38-35 212.18-35 212.18-32.25 208.83-32.25 198.08-11.8 198.08-2.75 201.68-2.75 201.68 0 191.68 0 191.68-2.75 194.93-2.75 194.93-11.8 183.53-32.25ZM228.83-32.3L228.83-32.3Q223.18-32.3 219.88-28.1 216.58-23.9 216.58-16L216.58-16Q216.58-12.6 217.28-10.05 217.98-7.5 219-6.1 220.03-4.7 221.53-3.9L221.53-3.9Q223.93-2.55 227.13-2.55L227.13-2.55Q232.08-2.55 237.03-3.65L237.03-3.65 237.63-1.05Q236.78-0.75 233.1-0.28 229.43 0.2 227.13 0.2 224.83 0.2 223.13-0.13 221.43-0.45 219.53-1.5 217.63-2.55 216.3-4.28 214.98-6 214.08-9 213.18-12 213.18-16L213.18-16Q213.18-24.85 217.23-29.8L217.23-29.8Q221.48-35 228.83-35L228.83-35Q231.08-35 233.7-34.58 236.33-34.15 237.43-33.75L237.43-33.75 238.03-26.55 235.58-26.2 234.88-31.6Q231.68-32.3 228.83-32.3ZM244.88-32.25L241.78-32.25 241.78-35 251.88-35 251.88-32.25 248.28-32.25 248.28-2.75 260.98-2.75 261.73-9 264.18-8.75 263.63-2.75 263.68-2.75 263.63-2.65 263.43 0 262.93-0.05 262.93 0 241.78 0 241.78-2.75 244.88-2.75 244.88-32.25ZM270.32-32.25L267.27-32.25 267.27-35 288.52-35 288.47-34.7 289.12-27.8 286.62-27.4 286.02-32.25 273.72-32.25 273.72-18.85 284.62-18.85 284.62-22 287.37-22 287.37-13.4 284.62-13.4 284.62-16.1 273.72-16.1 273.72-2.75 287.37-2.75 288.12-9 290.57-8.75 289.82 0 267.27 0 267.27-2.75 270.32-2.75 270.32-32.25Z" opacity="1" transform="matrix(1,0,0,1,0,0)" fill="#ffffff" class="wordmark-text-0" data-fill-palette-color="primary" id="text-0"></path></svg></g></svg></g></svg></g></svg></g><g transform="matrix(1,0,0,1,160.11740417679312,0)"><svg viewBox="0 0 75.28519164641378 67.16399116973274" height="67.16399116973274" width="75.28519164641378"><g><svg xmlns="http://www.w3.org/2000/svg" xmlns:xlink="http://www.w3.org/1999/xlink" version="1.1" x="0" y="0" viewBox="8.386999999999999 13.004999999999999 84.192 75.11" enable-background="new 0 0 100 100" xml:space="preserve" height="67.16399116973274" width="75.28519164641378" class="icon-icon-0" data-fill-palette-color="accent" id="icon-0"><g fill="#4d331f" data-fill-palette-color="accent"><path d="M49.569 22.967c-9.975-5.691-20.677-9.125-31.045-9.962v58.351c10.367 0.814 21.05 4.154 31.045 9.699V22.967z" fill="#ffffff" data-fill-palette-color="accent"></path><path d="M82.444 13.005c-10.368 0.838-21.071 4.271-31.045 9.962v58.087c9.993-5.545 20.679-8.885 31.045-9.699V13.005z" fill="#ffffff" data-fill-palette-color="accent"></path><path d="M49.229 84.073c0.814 0.278 1.671 0.29 2.485 0.012 11.657-5.043 23.865-7.313 35.798-6.79V19.524c-1.074-0.048-2.155-0.059-3.24-0.055v53.594l-0.852 0.056c-10.672 0.697-21.732 4.177-32.021 10.048-0.594 0.203-1.237 0.203-1.83 0-10.29-5.871-21.349-9.351-32.021-10.048l-0.854-0.056V19.469c-1.084-0.004-2.166 0.006-3.239 0.055v57.771C25.387 76.771 37.569 79.03 49.229 84.073z" fill="#ffffff" data-fill-palette-color="accent"></path><path d="M92.579 26.009c-1.07-0.149-2.157-0.228-3.237-0.335v53.55l-0.968-0.056c-12.195-0.699-25.06 1.777-36.975 7.065l-0.916 0.381-0.915-0.381c-11.917-5.288-24.781-7.765-36.976-7.065l-0.967 0.056v-53.55c-1.081 0.108-2.168 0.187-3.238 0.335v58.707c0.594 0.307 1.044 0.748 1.044 0.748 12.951-1.75 26.393-1.536 39.18 2.651 0.588-0.058 1.212-0.095 1.873-0.095 0.661 0 1.285 0.037 1.872 0.095 12.785-4.188 26.229-4.401 39.179-2.651 0 0 0.474-0.462 1.044-0.748V26.009z" fill="#ffffff" data-fill-palette-color="accent"></path></g></svg></g></svg></g><g></g></svg></g><defs></defs></svg><rect width="395.52" height="127.23620357864631" fill="none" stroke="none" visibility="hidden"></rect></g></svg></g></svg>